<svg width="54" height="40" viewBox="0 0 54 40" fill="none" xmlns="http://www.w3.org/2000/svg">
<path d="M51.066 33.1034C52.6861 33.1038 54 34.6475 54 36.5517C54 38.4559 52.6861 39.9996 51.066 40H4.67612C3.0557 40 1.74208 38.4562 1.74208 36.5517C1.74208 34.6473 3.0557 33.1034 4.67612 33.1034H51.066Z" fill="#FFDC99"/>
<path d="M51.066 16.5517C52.6861 16.5521 54 18.0958 54 20C54 21.9042 52.6861 23.4479 51.066 23.4483H13.9642C12.3438 23.4483 11.0301 21.9044 11.0301 20C11.0301 18.0956 12.3437 16.5517 13.9642 16.5517H51.066Z" fill="#FFDC99"/>
<path d="M51.0625 0C52.6855 0.000494905 53.9874 1.54759 53.9874 3.44828C53.9874 5.35248 52.6735 6.89619 51.0534 6.89655H2.93518C1.31476 6.89655 0 5.35271 0 3.44828C0 1.54826 1.29982 0.000212389 2.92372 0H51.0625Z" fill="#FFDC99"/>
</svg>
