<svg width="54" height="36" viewBox="0 0 54 36" fill="none" xmlns="http://www.w3.org/2000/svg">
<path d="M50.624 28.3564C52.4812 28.3567 53.9873 29.8625 53.9873 31.7197C53.987 33.5767 52.481 35.0827 50.624 35.083H12.8154C10.9582 35.083 9.4524 33.5769 9.45215 31.7197C9.45215 29.8624 10.9581 28.3564 12.8154 28.3564H50.624ZM12.8154 30.3564C12.0626 30.3564 11.4521 30.9669 11.4521 31.7197C11.4524 32.4723 12.0628 33.083 12.8154 33.083H50.624C51.3764 33.0827 51.987 32.4721 51.9873 31.7197C51.9873 30.9671 51.3766 30.3567 50.624 30.3564H12.8154ZM50.624 14.1777C52.481 14.178 53.9872 15.6839 53.9873 17.541C53.9872 19.3981 52.481 20.904 50.624 20.9043H3.36328C1.50601 20.9043 0.000130648 19.3983 0 17.541C0.000122693 15.6838 1.506 14.1777 3.36328 14.1777H50.624ZM3.36328 16.1777C2.61057 16.1777 2.00012 16.7883 2 17.541C2.00013 18.2937 2.61058 18.9043 3.36328 18.9043H50.624C51.3765 18.904 51.9872 18.2935 51.9873 17.541C51.9872 16.7885 51.3765 16.178 50.624 16.1777H3.36328ZM50.6455 0C52.5145 0.000267923 53.9873 1.51804 53.9873 3.36328C53.987 5.22024 52.481 6.72629 50.624 6.72656H12.8154C10.9582 6.72656 9.45242 5.2204 9.45215 3.36328C9.45215 1.51765 10.9253 0.000225288 12.7939 0H50.6455ZM12.7939 2C12.0529 2.00022 11.4521 2.59905 11.4521 3.36328C11.4524 4.11583 12.0628 4.72656 12.8154 4.72656H50.624C51.3764 4.72629 51.987 4.11567 51.9873 3.36328C51.9873 2.59871 51.3862 2.00027 50.6455 2H12.7939Z" fill="#FFDC99"/>
</svg>
