<svg width="57" height="51" viewBox="0 0 57 51" fill="none" xmlns="http://www.w3.org/2000/svg">
<path d="M1.5 44.1667V17.5C1.5 16.0855 2.0619 14.729 3.0621 13.7288C4.06229 12.7286 5.41885 12.1667 6.83333 12.1667H8.16667C8.99464 12.1667 9.81124 11.9739 10.5518 11.6036C11.2924 11.2333 11.9365 10.6957 12.4333 10.0333L18.3533 2.14C18.5024 1.94129 18.6956 1.78 18.9178 1.66892C19.14 1.55783 19.3849 1.5 19.6333 1.5H36.7C36.9484 1.5 37.1934 1.55783 37.4155 1.66892C37.6377 1.78 37.831 1.94129 37.98 2.14L43.9 10.0333C44.3968 10.6957 45.041 11.2333 45.7815 11.6036C46.5221 11.9739 47.3387 12.1667 48.1667 12.1667H49.5C50.9145 12.1667 52.271 12.7286 53.2712 13.7288C54.2714 14.729 54.8333 16.0855 54.8333 17.5V44.1667C54.8333 45.5812 54.2714 46.9377 53.2712 47.9379C52.271 48.9381 50.9145 49.5 49.5 49.5H6.83333C5.41885 49.5 4.06229 48.9381 3.0621 47.9379C2.0619 46.9377 1.5 45.5812 1.5 44.1667Z" stroke="#333333" stroke-width="3" stroke-linecap="round" stroke-linejoin="round"/>
<path d="M28.1667 38.8333C30.9956 38.8333 33.7088 37.7095 35.7091 35.7091C37.7095 33.7088 38.8333 30.9956 38.8333 28.1667C38.8333 25.3377 37.7095 22.6246 35.7091 20.6242C33.7088 18.6238 30.9956 17.5 28.1667 17.5C25.3377 17.5 22.6246 18.6238 20.6242 20.6242C18.6238 22.6246 17.5 25.3377 17.5 28.1667C17.5 30.9956 18.6238 33.7088 20.6242 35.7091C22.6246 37.7095 25.3377 38.8333 28.1667 38.8333Z" stroke="#333333" stroke-width="3" stroke-linecap="round" stroke-linejoin="round"/>
</svg>
