<svg width="14" height="10" viewBox="0 0 14 10" fill="none" xmlns="http://www.w3.org/2000/svg">
<path d="M9.93294 3.93343H11.2663C11.6199 3.93343 11.959 4.07391 12.2091 4.32396C12.4591 4.574 12.5996 4.91314 12.5996 5.26676V6.6001C12.5996 6.77691 12.5294 6.94648 12.4043 7.0715C12.2793 7.19653 12.1098 7.26676 11.9329 7.26676H10.9329M9.93294 3.93343H1.93294M9.93294 3.93343L8.32161 1.24743C8.20315 1.05 8.03558 0.886601 7.83521 0.77316C7.63485 0.659718 7.40852 0.600095 7.17828 0.600098H4.42361C4.17595 0.600106 3.93318 0.669093 3.72253 0.799326C3.51187 0.929558 3.34165 1.11589 3.23094 1.33743L1.93294 3.93343M10.9329 7.26676C10.9329 7.62039 10.7925 7.95952 10.5424 8.20957C10.2924 8.45962 9.95323 8.6001 9.59961 8.6001C9.24599 8.6001 8.90685 8.45962 8.6568 8.20957C8.40675 7.95952 8.26628 7.62039 8.26628 7.26676M10.9329 7.26676C10.9329 6.91314 10.7925 6.574 10.5424 6.32396C10.2924 6.07391 9.95323 5.93343 9.59961 5.93343C9.24599 5.93343 8.90685 6.07391 8.6568 6.32396C8.40675 6.574 8.26628 6.91314 8.26628 7.26676M1.93294 3.93343C1.57932 3.93343 1.24018 4.07391 0.990134 4.32396C0.740085 4.574 0.599609 4.91314 0.599609 5.26676V6.6001C0.599609 6.77691 0.669847 6.94648 0.794871 7.0715C0.919896 7.19653 1.08947 7.26676 1.26628 7.26676H2.26628M2.26628 7.26676C2.26628 7.62039 2.40675 7.95952 2.6568 8.20957C2.90685 8.45962 3.24599 8.6001 3.59961 8.6001C3.95323 8.6001 4.29237 8.45962 4.54242 8.20957C4.79247 7.95952 4.93294 7.62039 4.93294 7.26676M2.26628 7.26676C2.26628 6.91314 2.40675 6.574 2.6568 6.32396C2.90685 6.07391 3.24599 5.93343 3.59961 5.93343C3.95323 5.93343 4.29237 6.07391 4.54242 6.32396C4.79247 6.574 4.93294 6.91314 4.93294 7.26676M4.93294 7.26676H8.26628" stroke="#333333" stroke-opacity="0.6" stroke-width="1.2" stroke-linecap="round" stroke-linejoin="round"/>
</svg>
