<svg width="17" height="14" viewBox="0 0 17 14" fill="none" xmlns="http://www.w3.org/2000/svg">
<path fill-rule="evenodd" clip-rule="evenodd" d="M14.5461 0.119243C14.7308 0.00816729 14.9513 -0.0270616 15.1614 0.02095C15.3714 0.0689615 15.5547 0.19648 15.6728 0.376743L16.4978 1.63508C16.6053 1.79946 16.6514 1.99655 16.6277 2.19157C16.6041 2.38658 16.5123 2.56697 16.3686 2.70091L16.3661 2.70424L16.3545 2.71508L16.307 2.75924L16.1195 2.93841C15.082 3.94479 14.076 4.98307 13.1028 6.05174C11.272 8.06508 9.0978 10.7001 7.63447 13.2567C7.22613 13.9701 6.22863 14.1234 5.63697 13.5076L0.232802 7.89258C0.155356 7.81208 0.0948849 7.71683 0.0549823 7.6125C0.0150797 7.50816 -0.00343961 7.39687 0.000525092 7.28524C0.00448979 7.17361 0.0308575 7.06391 0.0780612 6.96267C0.125265 6.86143 0.192341 6.77071 0.275302 6.69591L1.90864 5.22258C2.05217 5.09317 2.23622 5.01767 2.42928 5.00901C2.62235 5.00034 2.81242 5.05905 2.96697 5.17508L5.72447 7.24258C10.032 2.99508 12.4745 1.36508 14.5461 0.119243Z" fill="#3D4F3A"/>
</svg>
