<svg width="15" height="15" viewBox="0 0 15 15" fill="none" xmlns="http://www.w3.org/2000/svg">
<path d="M6.45844 2.9225C7.91431 2.749 9.38695 3.05676 10.6515 3.79878C11.916 4.5408 12.903 5.6763 13.4616 7.03188C13.5137 7.1722 13.5137 7.32655 13.4616 7.46688C13.2319 8.02375 12.9283 8.54719 12.5591 9.02312M8.55282 8.59875C8.19919 8.9403 7.72556 9.12929 7.23394 9.12501C6.74232 9.12074 6.27205 8.92355 5.92441 8.57591C5.57677 8.22827 5.37957 7.758 5.3753 7.26638C5.37103 6.77476 5.56002 6.30113 5.90157 5.9475M10.6747 10.6869C9.84562 11.178 8.9206 11.485 7.96242 11.5871C7.00423 11.6892 6.03529 11.584 5.12134 11.2787C4.20738 10.9733 3.36981 10.4749 2.66545 9.81734C1.96108 9.15975 1.40641 8.35835 1.03907 7.4675C0.986978 7.32718 0.986978 7.17282 1.03907 7.0325C1.59321 5.68866 2.56824 4.56078 3.81782 3.81812M1.00032 1L13.5003 13.5" stroke="#333333" stroke-opacity="0.6" stroke-width="2" stroke-linecap="round" stroke-linejoin="round"/>
</svg>
