<svg width="17" height="10" viewBox="0 0 17 10" fill="none" xmlns="http://www.w3.org/2000/svg">
<path d="M1.61583 6.09833C1.54122 6.30201 1.39014 6.46858 1.19467 6.56263C0.999212 6.65669 0.774779 6.67082 0.569061 6.60203C0.363343 6.53324 0.192555 6.38695 0.0929843 6.19424C-0.00658621 6.00153 -0.0270909 5.77759 0.035827 5.57C0.0663506 5.47855 0.100827 5.3868 0.13916 5.29833C0.205827 5.14 0.30416 4.92167 0.43916 4.66333C0.71416 4.14667 1.14249 3.45833 1.77416 2.77C3.04916 1.37833 5.13749 0 8.32583 0C11.5142 0 13.6025 1.37833 14.8775 2.77C15.5575 3.51702 16.1094 4.37131 16.5108 5.29833L16.5875 5.48667C16.5925 5.5 16.6092 5.58667 16.6258 5.67L16.6592 5.83333C16.6592 5.83333 16.7992 6.38833 16.0892 6.62333C15.8801 6.69316 15.6518 6.67729 15.4544 6.57921C15.257 6.48112 15.1065 6.30881 15.0358 6.1V6.095L15.0258 6.06833L14.9742 5.93833C14.6468 5.18959 14.1992 4.49938 13.6492 3.895C12.6325 2.79 10.9708 1.66667 8.32583 1.66667C5.68083 1.66667 4.01916 2.78833 3.00249 3.89667C2.45261 4.50054 2.00505 5.19017 1.67749 5.93833L1.62749 6.06833L1.61583 6.09833ZM8.32583 3.33333C7.44177 3.33333 6.59393 3.68452 5.9688 4.30964C5.34368 4.93477 4.99249 5.78261 4.99249 6.66667C4.99249 7.55072 5.34368 8.39857 5.9688 9.02369C6.59393 9.64881 7.44177 10 8.32583 10C9.20988 10 10.0577 9.64881 10.6828 9.02369C11.308 8.39857 11.6592 7.55072 11.6592 6.66667C11.6592 5.78261 11.308 4.93477 10.6828 4.30964C10.0577 3.68452 9.20988 3.33333 8.32583 3.33333ZM6.65916 6.66667C6.65916 6.22464 6.83476 5.80072 7.14732 5.48816C7.45988 5.17559 7.8838 5 8.32583 5C8.76785 5 9.19178 5.17559 9.50434 5.48816C9.8169 5.80072 9.99249 6.22464 9.99249 6.66667C9.99249 7.10869 9.8169 7.53262 9.50434 7.84518C9.19178 8.15774 8.76785 8.33333 8.32583 8.33333C7.8838 8.33333 7.45988 8.15774 7.14732 7.84518C6.83476 7.53262 6.65916 7.10869 6.65916 6.66667Z" fill="#333333" fill-opacity="0.6"/>
</svg>
