<svg width="24" height="28" viewBox="0 0 24 28" fill="none" xmlns="http://www.w3.org/2000/svg">
<path d="M18 12.5C18 13.163 17.7366 13.7989 17.2678 14.2678C16.7989 14.7366 16.163 15 15.5 15C14.837 15 14.2011 14.7366 13.7322 14.2678C13.2634 13.7989 13 13.163 13 12.5C13 11.837 13.2634 11.2011 13.7322 10.7322C14.2011 10.2634 14.837 10 15.5 10C16.163 10 16.7989 10.2634 17.2678 10.7322C17.7366 11.2011 18 11.837 18 12.5ZM7.5 11C7.89782 11 8.27936 10.842 8.56066 10.5607C8.84196 10.2794 9 9.89782 9 9.5C9 9.10218 8.84196 8.72064 8.56066 8.43934C8.27936 8.15804 7.89782 8 7.5 8C7.10218 8 6.72064 8.15804 6.43934 8.43934C6.15804 8.72064 6 9.10218 6 9.5C6 9.89782 6.15804 10.2794 6.43934 10.5607C6.72064 10.842 7.10218 11 7.5 11ZM12 17.5C12 18.163 11.7366 18.7989 11.2678 19.2678C10.7989 19.7366 10.163 20 9.5 20C8.83696 20 8.20107 19.7366 7.73223 19.2678C7.26339 18.7989 7 18.163 7 17.5C7 16.837 7.26339 16.2011 7.73223 15.7322C8.20107 15.2634 8.83696 15 9.5 15C10.163 15 10.7989 15.2634 11.2678 15.7322C11.7366 16.2011 12 16.837 12 17.5Z" fill="#333333"/>
<path d="M7.31598e-06 13L0.00800721 12.97C0.00250807 12.8134 -0.000158928 12.6567 7.31598e-06 12.5C7.31598e-06 5.596 5.37301 0 12 0C18.627 0 24 5.596 24 12.5C24 12.66 23.997 12.8187 23.991 12.976L24 13V16C24 21.799 20 28 12 28C4.00001 28 7.31598e-06 21.799 7.31598e-06 16C7.31598e-06 16 0.0220073 12.92 7.31598e-06 13ZM23 14C23 8.477 17.811 4 12 4C6.18901 4 1.00001 8.477 1.00001 14C1.00001 19.523 6.18901 24 12 24C17.811 24 23 19.523 23 14Z" fill="#333333"/>
</svg>
