<svg width="90" height="86" viewBox="0 0 90 86" fill="none" xmlns="http://www.w3.org/2000/svg">
<path fill-rule="evenodd" clip-rule="evenodd" d="M33.5251 3.08688C35.9959 5.39105 37.9042 8.78688 38.8834 12.666C39.8667 16.5494 39.8001 20.4702 38.7667 23.7244C37.7459 26.9202 35.5917 29.941 32.0876 30.9369C28.5417 31.9452 25.1709 30.4494 22.7251 28.166C20.2542 25.8619 18.3459 22.4702 17.3667 18.591C16.3834 14.7077 16.4501 10.7869 17.4834 7.53271C18.5042 4.33271 20.6584 1.31605 24.1626 0.320212C27.7084 -0.688121 31.0792 0.807713 33.5251 3.09105M29.2626 7.66605C27.7876 6.29105 26.5959 6.12855 25.8709 6.33271C25.1084 6.55355 24.0917 7.38688 23.4376 9.43688C22.8042 11.4327 22.6876 14.1535 23.4251 17.0619C24.1626 19.9785 25.5334 22.2452 26.9876 23.6035C28.4626 24.9785 29.6542 25.1369 30.3792 24.9285C31.1417 24.7119 32.1584 23.8785 32.8126 21.8285C33.4459 19.8327 33.5626 17.1119 32.8251 14.2035C32.0876 11.2869 30.7167 9.02438 29.2626 7.66605ZM40.0001 34.1244C43.1086 33.0765 46.4749 33.0765 49.5834 34.1244C53.0292 35.2869 55.5376 38.1744 57.8626 41.8619C60.1959 45.5702 62.7376 50.7327 65.9626 57.3077L69.7417 64.9994C70.5751 66.6869 71.2334 68.0327 71.7084 69.1035C72.1792 70.1577 72.5834 71.1869 72.7501 72.1869C73.9001 78.9077 68.9292 85.216 62.0709 85.416C60.9874 85.4126 59.9089 85.2684 58.8626 84.9869C57.4058 84.6324 55.9556 84.2518 54.5126 83.8452L54.4459 83.8285C53.123 83.44 51.7875 83.0954 50.4417 82.7952C46.7133 82.0365 42.8702 82.0365 39.1417 82.7952C37.796 83.0954 36.4605 83.44 35.1376 83.8285L35.0709 83.8452C33.2834 84.3327 31.8542 84.7285 30.7251 84.9869C29.6774 85.2687 28.5975 85.413 27.5126 85.416C20.6542 85.216 15.6834 78.9077 16.8334 72.1869C17.0001 71.1869 17.4084 70.1577 17.8751 69.1035C18.3501 68.0327 19.0126 66.6869 19.8417 64.9994L23.6209 57.3077C26.8501 50.7327 29.3834 45.566 31.7209 41.8619C34.0459 38.1744 36.5501 35.2869 40.0001 34.1244ZM47.5876 40.0452C45.7764 39.4355 43.8154 39.4355 42.0042 40.0452C40.7001 40.4827 39.1792 41.7619 37.0126 45.1952C34.8751 48.5869 32.4834 53.4452 29.1459 60.2369L25.4834 67.6952C24.6209 69.4535 24.0126 70.6952 23.5876 71.6452C23.3364 72.1556 23.1382 72.6903 22.9959 73.241C22.4667 76.341 24.7626 79.0827 27.6959 79.1702C27.8626 79.1744 28.2792 79.141 29.3126 78.8994C30.7105 78.5568 32.1023 78.19 33.4876 77.7994L33.6126 77.766C35.6001 77.2202 36.7501 76.9035 37.9042 76.6702C42.4508 75.7459 47.1369 75.7459 51.6834 76.6702C52.8417 76.9035 53.9917 77.2202 55.9834 77.766L56.1042 77.7994C57.9709 78.3119 59.2834 78.6702 60.2792 78.8994C61.3084 79.141 61.7334 79.1744 61.8959 79.1702C64.8292 79.0869 67.1251 76.3369 66.5959 73.2369C66.4534 72.6876 66.2551 72.1542 66.0042 71.6452C65.3947 70.3179 64.7626 69.0011 64.1084 67.6952L60.4459 60.2369C57.1126 53.4452 54.7167 48.5869 52.5792 45.1952C50.4126 41.7619 48.8917 40.4869 47.5876 40.0452ZM50.7001 12.666C51.6792 8.78688 53.5876 5.39105 56.0584 3.09105C58.5042 0.807713 61.8751 -0.688121 65.4209 0.320212C68.9251 1.31605 71.0792 4.33271 72.1001 7.53271C73.1376 10.7827 73.2001 14.7077 72.2167 18.591C71.2376 22.4702 69.3292 25.8619 66.8584 28.166C64.4126 30.4494 61.0417 31.9452 57.4959 30.9369C53.9917 29.9369 51.8376 26.9202 50.8167 23.7244C49.7834 20.4702 49.7167 16.5494 50.7001 12.666ZM63.7126 6.33271C62.9876 6.12438 61.7959 6.28271 60.3209 7.66188C58.8709 9.01605 57.4959 11.2827 56.7584 14.1952C56.0209 17.1077 56.1334 19.8285 56.7751 21.8244C57.4251 23.8744 58.4417 24.7077 59.2084 24.9244C59.9292 25.1327 61.1209 24.9744 62.5959 23.5952C64.0501 22.241 65.4209 19.9744 66.1584 17.0619C66.8959 14.1494 66.7834 11.4285 66.1459 9.43271C65.4917 7.38271 64.4751 6.54938 63.7126 6.33271ZM14.3542 33.141C12.0084 31.516 8.97091 30.6577 5.97924 31.716C2.97508 32.7785 1.17924 35.366 0.437575 38.1244C-0.308258 40.891 -0.0957587 44.0827 1.03757 47.1244C2.17507 50.166 4.11674 52.7285 6.47924 54.366C8.82508 55.991 11.8626 56.8452 14.8542 55.791C17.8584 54.7285 19.6542 52.141 20.3959 49.3827C21.1417 46.616 20.9334 43.4244 19.7959 40.3827C18.6584 37.341 16.7167 34.7785 14.3542 33.141ZM10.8001 38.2827C12.0001 39.116 13.2001 40.5869 13.9417 42.566C14.6792 44.5452 14.7251 46.4077 14.3584 47.7577C13.9959 49.116 13.3292 49.6994 12.7709 49.8994C12.1959 50.1035 11.2501 50.066 10.0334 49.2244C8.83341 48.391 7.63341 46.916 6.89174 44.941C6.15424 42.9619 6.10841 41.0994 6.47508 39.7494C6.83757 38.391 7.50424 37.8077 8.06258 37.6077C8.63758 37.4035 9.58341 37.441 10.8001 38.2827ZM83.6042 31.7119C80.6126 30.6577 77.5751 31.5202 75.2292 33.141C72.8667 34.7785 70.9251 37.3369 69.7876 40.3827C68.6542 43.4244 68.4459 46.616 69.1876 49.3827C69.9292 52.141 71.7251 54.7285 74.7292 55.791C77.7209 56.8494 80.7584 55.9869 83.1042 54.366C85.4667 52.7285 87.4084 50.1702 88.5459 47.1244C89.6834 44.0827 89.8917 40.891 89.1459 38.1244C88.4042 35.366 86.6084 32.7785 83.6042 31.716M75.6459 42.5702C76.3834 40.591 77.5834 39.1202 78.7834 38.2869C80.0001 37.4452 80.9501 37.4119 81.5209 37.6119C82.0792 37.8077 82.7459 38.3952 83.1126 39.7535C83.4751 41.1035 83.4292 42.9619 82.6917 44.9452C81.9501 46.9202 80.7501 48.3952 79.5501 49.2285C78.3334 50.0702 77.3876 50.1035 76.8126 49.9035C76.2542 49.7077 75.5876 49.1202 75.2209 47.7619C74.8584 46.4119 74.9042 44.5535 75.6417 42.5702" fill="#8B5A3C"/>
</svg>
