<svg width="104" height="82" viewBox="0 0 104 82" fill="none" xmlns="http://www.w3.org/2000/svg">
<path d="M40.9248 51.7469L71.1823 21.4948C69.9224 20.2353 68.9926 18.6845 68.4751 16.9798C67.9577 15.2751 67.8687 13.4691 68.2159 11.7218C68.5631 9.9745 69.3359 8.33977 70.4658 6.96243C71.5957 5.58509 73.0478 4.50765 74.6936 3.82555C76.3393 3.14344 78.1278 2.87772 79.9008 3.05192C81.6737 3.22612 83.3764 3.83486 84.8579 4.82423C86.3394 5.8136 87.554 7.15305 88.3942 8.72396C89.2345 10.2949 89.6743 12.0487 89.6748 13.8302C91.4568 13.829 93.2115 14.2673 94.7835 15.1063C96.3556 15.9454 97.6964 17.1593 98.6871 18.6404C99.6779 20.1215 100.288 21.8242 100.463 23.5975C100.639 25.3708 100.374 27.16 99.6924 28.8065C99.0109 30.453 97.9338 31.906 96.5566 33.0367C95.1793 34.1673 93.5444 34.9408 91.7967 35.2886C90.049 35.6364 88.2425 35.5476 86.5373 35.0303C84.8321 34.5129 83.2809 33.5829 82.0211 32.3227L62.5915 51.7469" stroke="#8B5A3C" stroke-width="6" stroke-linecap="round" stroke-linejoin="round"/>
<path d="M51.7577 40.9136L32.3336 21.4948C33.5935 20.2353 34.5233 18.6845 35.0407 16.9798C35.5581 15.2751 35.6472 13.4691 35.3 11.7218C34.9527 9.9745 34.18 8.33977 33.0501 6.96243C31.9202 5.58509 30.4681 4.50765 28.8223 3.82555C27.1766 3.14344 25.388 2.87772 23.6151 3.05192C21.8421 3.22612 20.1395 3.83486 18.658 4.82423C17.1765 5.8136 15.9618 7.15305 15.1216 8.72396C14.2814 10.2949 13.8416 12.0487 13.8411 13.8302C12.0591 13.829 10.3044 14.2673 8.73232 15.1063C7.16027 15.9454 5.81948 17.1593 4.82874 18.6404C3.83801 20.1215 3.22793 21.8242 3.05258 23.5975C2.87723 25.3708 3.14202 27.16 3.82347 28.8065C4.50493 30.453 5.58202 31.906 6.95929 33.0366C8.33656 34.1673 9.97148 34.9408 11.7192 35.2886C13.4668 35.6364 15.2733 35.5476 16.9785 35.0303C18.6837 34.5129 20.235 33.5829 21.4948 32.3227L40.9244 51.7469M3.00773 78.8302H100.508C99.5598 69.779 100.259 60.7115 89.6744 51.7469H13.8411C6.61884 57.1636 3.00773 66.1913 3.00773 78.8302Z" stroke="#8B5A3C" stroke-width="6" stroke-linecap="round" stroke-linejoin="round"/>
</svg>
