<svg width="130" height="91" viewBox="0 0 130 91" fill="none" xmlns="http://www.w3.org/2000/svg">
<path d="M6.5 2C8.99074 2 11 4.00926 11 6.5V37.3672L11.4629 37.9238L29.6953 59.8096V59.8105C31.6701 62.2132 35.2585 62.368 37.4482 60.1787L40.0488 57.5781C41.8258 55.8009 42.101 53.0038 40.6816 50.918L40.5391 50.7188L32.7998 40.4004L32.7988 40.3984L32.665 40.2109C31.3394 38.2466 31.7782 35.545 33.7021 34.0986C35.6783 32.6132 38.508 33.0158 40.001 35.001L51.6982 50.5967V50.5977C54.8133 54.7635 56.5 59.808 56.5 65V87.75C56.5 88.4329 55.9329 89 55.25 89H28.498C27.9444 88.9998 27.5098 88.6687 27.3535 88.2285L27.3262 88.1387C26.8597 86.3235 26.0592 84.5713 24.8633 83.0166L24.8584 83.0107L3.71387 55.7314L3.7041 55.7188L3.69434 55.707L3.49512 55.4463C2.52621 54.1229 2 52.5148 2 50.8623V6.5C2 4.00926 4.00926 2 6.5 2ZM123.5 2C125.991 2 128 4.00926 128 6.5V50.8623C128 52.6248 127.402 54.3371 126.306 55.707L126.296 55.7188L126.286 55.7314L105.142 83.0107L105.137 83.0166C103.941 84.5713 103.14 86.3235 102.674 88.1387C102.549 88.6156 102.08 88.9998 101.502 89H74.75C74.0671 89 73.5 88.4329 73.5 87.75V65C73.5 59.808 75.1867 54.7635 78.3018 50.5977L78.3008 50.5967L89.998 35.001L89.999 35.002C91.4919 33.0162 94.3215 32.613 96.2979 34.0986C98.2837 35.5916 98.687 38.422 97.2012 40.3984L97.2002 40.4004L89.4609 50.7188C87.883 52.8226 88.1169 55.7437 89.9512 57.5781L92.5518 60.1787C94.7264 62.3529 98.3266 62.1843 100.296 59.8213V59.8203L118.537 37.9238L119 37.3672V6.5C119 4.00926 121.009 2 123.5 2Z" stroke="#8B5A3C" stroke-width="4"/>
</svg>
