<svg width="22" height="22" viewBox="0 0 22 22" fill="none" xmlns="http://www.w3.org/2000/svg">
<mask id="path-1-inside-1_153_399" fill="white">
<path fill-rule="evenodd" clip-rule="evenodd" d="M22 8.195V5.923L11 0L0 5.923V8.195L11 2.272L22 8.195ZM3.32 10V20.68H18.56V10H20V22H2V10H3.32Z"/>
</mask>
<path d="M22 8.195L19.6295 12.5974L27 16.566V8.195H22ZM22 5.923H27V2.93651L24.3705 1.52063L22 5.923ZM11 0L13.3705 -4.40237L11 -5.67876L8.62953 -4.40237L11 0ZM0 5.923L-2.37048 1.52063L-5 2.93651V5.923H0ZM0 8.195H-5V16.566L2.37048 12.5974L0 8.195ZM11 2.272L13.3705 -2.13037L11 -3.40676L8.62953 -2.13037L11 2.272ZM3.32 10H8.32V5H3.32V10ZM3.32 20.68H-1.68V25.68H3.32V20.68ZM18.56 20.68V25.68H23.56V20.68H18.56ZM18.56 10V5H13.56V10H18.56ZM20 10H25V5H20V10ZM20 22V27H25V22H20ZM2 22H-3V27H2V22ZM2 10V5H-3V10H2ZM22 8.195H27V5.923H22H17V8.195H22ZM22 5.923L24.3705 1.52063L13.3705 -4.40237L11 0L8.62953 4.40237L19.6295 10.3254L22 5.923ZM11 0L8.62953 -4.40237L-2.37048 1.52063L0 5.923L2.37048 10.3254L13.3705 4.40237L11 0ZM0 5.923H-5V8.195H0H5V5.923H0ZM0 8.195L2.37048 12.5974L13.3705 6.67437L11 2.272L8.62953 -2.13037L-2.37048 3.79263L0 8.195ZM11 2.272L8.62953 6.67437L19.6295 12.5974L22 8.195L24.3705 3.79263L13.3705 -2.13037L11 2.272ZM3.32 10H-1.68V20.68H3.32H8.32V10H3.32ZM3.32 20.68V25.68H18.56V20.68V15.68H3.32V20.68ZM18.56 20.68H23.56V10H18.56H13.56V20.68H18.56ZM18.56 10V15H20V10V5H18.56V10ZM20 10H15V22H20H25V10H20ZM20 22V17H2V22V27H20V22ZM2 22H7V10H2H-3V22H2ZM2 10V15H3.32V10V5H2V10Z" fill="#8B5A3C" mask="url(#path-1-inside-1_153_399)"/>
</svg>
