<svg width="28" height="28" viewBox="0 0 28 28" fill="none" xmlns="http://www.w3.org/2000/svg">
<mask id="path-1-inside-1_219_2422" fill="white">
<path fill-rule="evenodd" clip-rule="evenodd" d="M26.8337 10.7268V8.07618L14.0003 1.16602L1.16699 8.07618V10.7268L14.0003 3.81668L26.8337 10.7268ZM5.04033 12.8327V25.2927H22.8203V12.8327H24.5003V26.8327H3.50033V12.8327H5.04033Z"/>
</mask>
<path d="M26.8337 10.7268L24.4632 15.1292L31.8337 19.0979V10.7268H26.8337ZM26.8337 8.07618H31.8337V5.08969L29.2041 3.67381L26.8337 8.07618ZM14.0003 1.16602L16.3708 -3.23635L14.0003 -4.51275L11.6299 -3.23635L14.0003 1.16602ZM1.16699 8.07618L-1.20348 3.67381L-3.83301 5.08969V8.07618H1.16699ZM1.16699 10.7268H-3.83301V19.0979L3.53747 15.1292L1.16699 10.7268ZM14.0003 3.81668L16.3708 -0.585686L14.0003 -1.86208L11.6299 -0.585686L14.0003 3.81668ZM5.04033 12.8327H10.0403V7.83268H5.04033V12.8327ZM5.04033 25.2927H0.0403284V30.2927H5.04033V25.2927ZM22.8203 25.2927V30.2927H27.8203V25.2927H22.8203ZM22.8203 12.8327V7.83268H17.8203V12.8327H22.8203ZM24.5003 12.8327H29.5003V7.83268H24.5003V12.8327ZM24.5003 26.8327V31.8327H29.5003V26.8327H24.5003ZM3.50033 26.8327H-1.49967V31.8327H3.50033V26.8327ZM3.50033 12.8327V7.83268H-1.49967V12.8327H3.50033ZM26.8337 10.7268H31.8337V8.07618H26.8337H21.8337V10.7268H26.8337ZM26.8337 8.07618L29.2041 3.67381L16.3708 -3.23635L14.0003 1.16602L11.6299 5.56838L24.4632 12.4785L26.8337 8.07618ZM14.0003 1.16602L11.6299 -3.23635L-1.20348 3.67381L1.16699 8.07618L3.53747 12.4785L16.3708 5.56838L14.0003 1.16602ZM1.16699 8.07618H-3.83301V10.7268H1.16699H6.16699V8.07618H1.16699ZM1.16699 10.7268L3.53747 15.1292L16.3708 8.21905L14.0003 3.81668L11.6299 -0.585686L-1.20348 6.32448L1.16699 10.7268ZM14.0003 3.81668L11.6299 8.21905L24.4632 15.1292L26.8337 10.7268L29.2041 6.32448L16.3708 -0.585686L14.0003 3.81668ZM5.04033 12.8327H0.0403284V25.2927H5.04033H10.0403V12.8327H5.04033ZM5.04033 25.2927V30.2927H22.8203V25.2927V20.2927H5.04033V25.2927ZM22.8203 25.2927H27.8203V12.8327H22.8203H17.8203V25.2927H22.8203ZM22.8203 12.8327V17.8327H24.5003V12.8327V7.83268H22.8203V12.8327ZM24.5003 12.8327H19.5003V26.8327H24.5003H29.5003V12.8327H24.5003ZM24.5003 26.8327V21.8327H3.50033V26.8327V31.8327H24.5003V26.8327ZM3.50033 26.8327H8.50033V12.8327H3.50033H-1.49967V26.8327H3.50033ZM3.50033 12.8327V17.8327H5.04033V12.8327V7.83268H3.50033V12.8327Z" fill="#FFF9F9" mask="url(#path-1-inside-1_219_2422)"/>
</svg>
