<svg width="300" height="260" viewBox="0 0 300 260" fill="none" xmlns="http://www.w3.org/2000/svg">
<path d="M296.511 84.2191C293.042 75.9765 287.279 70.0336 279.84 67.0403L279.74 67.0028C276.354 65.6777 272.75 64.9994 269.114 65.0031H268.714C251.686 65.2593 234.303 79.726 225.464 101.004C218.982 116.564 218.238 133.3 223.476 145.773C226.939 154.022 232.715 159.964 240.185 162.958L240.266 162.989C243.652 164.314 247.256 164.992 250.892 164.989C268.082 164.989 285.647 150.522 294.648 128.963C301.049 113.421 301.756 96.6986 296.511 84.2191ZM228.477 175.993C218.657 170.094 209.374 164.514 203.311 154.49C186.584 126.744 176.482 109.997 149.997 109.997C123.512 109.997 113.386 126.744 96.6212 154.49C90.5453 164.526 81.244 170.113 71.3927 176.037C60.0974 182.824 48.427 189.835 43.3888 203.633C41.4297 208.607 40.4431 213.91 40.4822 219.256C40.4822 241.721 57.9846 260 79.4875 260C90.5828 260 102.391 256.157 114.886 252.089C126.9 248.177 139.321 244.134 150.06 244.134C160.799 244.134 173.188 248.177 185.158 252.089C197.629 256.132 209.38 259.975 220.507 259.975C241.979 259.975 259.45 241.696 259.45 219.231C259.468 213.881 258.46 208.578 256.481 203.608C251.443 189.798 239.766 182.78 228.477 175.993ZM83.7381 88.0311C91.1767 97.361 100.615 102.498 110.317 102.498C111.641 102.497 112.964 102.399 114.274 102.204C134.508 99.2294 147.116 74.5455 142.978 45.9621C141.246 33.9451 136.62 22.753 129.995 14.4542C122.569 5.14301 113.117 0.0124985 103.422 0.0124985C102.098 0.0128151 100.775 0.110986 99.4653 0.306207C79.2313 3.28078 66.6233 27.9647 70.7613 56.5481C72.4866 68.5464 77.1122 79.726 83.7381 88.0311ZM185.727 102.204C187.037 102.399 188.36 102.497 189.684 102.498C199.392 102.498 208.824 97.361 216.263 88.0311C222.882 79.726 227.483 68.5464 229.233 56.5356C233.371 27.9647 220.763 3.28078 200.529 0.293708C199.219 0.0984874 197.897 0.000316659 196.572 0C186.877 0.0124982 177.426 5.14301 170 14.4542C163.374 22.753 158.748 33.9451 157.023 45.9746C152.885 74.5455 165.493 99.2294 185.727 102.204ZM59.7286 162.989L59.8161 162.958C67.2734 159.964 73.0429 154.028 76.4996 145.785C81.7379 133.287 81.0003 116.571 74.5306 101.01C65.5731 79.476 48.0145 65.0031 30.8433 65.0031C27.2071 64.9979 23.6023 65.6762 20.2169 67.0028L20.1294 67.0341C12.6908 70.0024 6.92128 75.964 3.46455 84.2066C-1.77367 96.7048 -1.03607 113.421 5.43357 128.981C14.3911 150.516 31.9497 164.989 49.1209 164.989C52.7508 164.992 56.349 164.313 59.7286 162.989Z" fill="#C49A4A"/>
</svg>
