<svg width="22" height="21" viewBox="0 0 22 21" fill="none" xmlns="http://www.w3.org/2000/svg">
<path fill-rule="evenodd" clip-rule="evenodd" d="M8.04602 0.740851C8.63902 1.29385 9.09702 2.10885 9.33202 3.03985C9.56802 3.97185 9.55202 4.91285 9.30402 5.69385C9.05902 6.46085 8.54202 7.18585 7.70102 7.42485C6.85002 7.66685 6.04102 7.30785 5.45402 6.75985C4.86102 6.20685 4.40302 5.39285 4.16802 4.46185C3.93202 3.52985 3.94802 2.58885 4.19602 1.80785C4.44102 1.03985 4.95802 0.315851 5.79902 0.0768509C6.65002 -0.165149 7.45902 0.193851 8.04602 0.741851M7.02302 1.83985C6.66902 1.50985 6.38302 1.47085 6.20902 1.51985C6.02602 1.57285 5.78202 1.77285 5.62502 2.26485C5.47302 2.74385 5.44502 3.39685 5.62202 4.09485C5.79902 4.79485 6.12802 5.33885 6.47702 5.66485C6.83102 5.99485 7.11702 6.03285 7.29102 5.98285C7.47402 5.93085 7.71802 5.73085 7.87502 5.23885C8.02702 4.75985 8.05502 4.10685 7.87802 3.40885C7.70102 2.70885 7.37202 2.16585 7.02302 1.83985ZM9.60002 8.18985C10.3461 7.93835 11.154 7.93835 11.9 8.18985C12.727 8.46885 13.329 9.16185 13.887 10.0469C14.447 10.9369 15.057 12.1759 15.831 13.7539L16.738 15.5999C16.938 16.0049 17.096 16.3279 17.21 16.5849C17.323 16.8379 17.42 17.0849 17.46 17.3249C17.736 18.9379 16.543 20.4519 14.897 20.4999C14.637 20.499 14.3781 20.4644 14.127 20.3969C13.7774 20.3118 13.4293 20.2204 13.083 20.1229L13.067 20.1189C12.7495 20.0256 12.429 19.9429 12.106 19.8709C11.2112 19.6888 10.2888 19.6888 9.39402 19.8709C9.07104 19.9429 8.75053 20.0256 8.43302 20.1189L8.41702 20.1229C7.98802 20.2399 7.64502 20.3349 7.37402 20.3969C7.12258 20.4645 6.8634 20.4991 6.60302 20.4999C4.95702 20.4519 3.76402 18.9379 4.04002 17.3249C4.08002 17.0849 4.17802 16.8379 4.29002 16.5849C4.40402 16.3279 4.56302 16.0049 4.76202 15.5999L5.66902 13.7539C6.44402 12.1759 7.05202 10.9359 7.61302 10.0469C8.17102 9.16185 8.77202 8.46885 9.60002 8.18985ZM11.421 9.61085C10.9863 9.46452 10.5157 9.46452 10.081 9.61085C9.76802 9.71585 9.40302 10.0229 8.88302 10.8469C8.37002 11.6609 7.79602 12.8269 6.99502 14.4569L6.11602 16.2469C5.90902 16.6689 5.76302 16.9669 5.66102 17.1949C5.60074 17.3173 5.55316 17.4457 5.51902 17.5779C5.39202 18.3218 5.94302 18.9799 6.64702 19.0009C6.68702 19.0019 6.78702 18.9939 7.03502 18.9359C7.37051 18.8536 7.70456 18.7656 8.03702 18.6719L8.06702 18.6639C8.54402 18.5329 8.82002 18.4569 9.09702 18.4009C10.1882 18.179 11.3128 18.179 12.404 18.4009C12.682 18.4569 12.958 18.5329 13.436 18.6639L13.465 18.6719C13.913 18.7948 14.228 18.8808 14.467 18.9359C14.714 18.9939 14.816 19.0019 14.855 19.0009C15.559 18.9809 16.11 18.3209 15.983 17.5769C15.9488 17.445 15.9012 17.317 15.841 17.1949C15.6947 16.8763 15.543 16.5603 15.386 16.2469L14.507 14.4569C13.707 12.8269 13.132 11.6609 12.619 10.8469C12.099 10.0229 11.734 9.71685 11.421 9.61085ZM12.168 3.03985C12.403 2.10885 12.861 1.29385 13.454 0.741851C14.041 0.193851 14.85 -0.165149 15.701 0.0768509C16.542 0.315851 17.059 1.03985 17.304 1.80785C17.553 2.58785 17.568 3.52985 17.332 4.46185C17.097 5.39285 16.639 6.20685 16.046 6.75985C15.459 7.30785 14.65 7.66685 13.799 7.42485C12.958 7.18485 12.441 6.46085 12.196 5.69385C11.948 4.91285 11.932 3.97185 12.168 3.03985ZM15.291 1.51985C15.117 1.46985 14.831 1.50785 14.477 1.83885C14.129 2.16385 13.799 2.70785 13.622 3.40685C13.445 4.10585 13.472 4.75885 13.626 5.23785C13.782 5.72985 14.026 5.92985 14.21 5.98185C14.383 6.03185 14.669 5.99385 15.023 5.66285C15.372 5.33785 15.701 4.79385 15.878 4.09485C16.055 3.39585 16.028 2.74285 15.875 2.26385C15.718 1.77185 15.474 1.57185 15.291 1.51985ZM3.44502 7.95385C2.88202 7.56385 2.15302 7.35785 1.43502 7.61185C0.714018 7.86685 0.283018 8.48785 0.105018 9.14985C-0.073982 9.81385 -0.0229821 10.5799 0.249018 11.3099C0.522018 12.0399 0.988018 12.6549 1.55502 13.0479C2.11802 13.4379 2.84702 13.6429 3.56502 13.3899C4.28602 13.1349 4.71702 12.5139 4.89502 11.8519C5.07402 11.1879 5.02402 10.4219 4.75102 9.69185C4.47802 8.96185 4.01202 8.34685 3.44502 7.95385ZM2.59202 9.18785C2.88002 9.38785 3.16802 9.74085 3.34602 10.2159C3.52302 10.6909 3.53402 11.1379 3.44602 11.4619C3.35902 11.7879 3.19902 11.9279 3.06502 11.9759C2.92702 12.0249 2.70002 12.0159 2.40802 11.8139C2.12002 11.6139 1.83202 11.2599 1.65402 10.7859C1.47702 10.3109 1.46602 9.86385 1.55402 9.53985C1.64102 9.21385 1.80102 9.07385 1.93502 9.02585C2.07302 8.97685 2.30002 8.98585 2.59202 9.18785ZM20.065 7.61085C19.347 7.35785 18.618 7.56485 18.055 7.95385C17.488 8.34685 17.022 8.96085 16.749 9.69185C16.477 10.4219 16.427 11.1879 16.605 11.8519C16.783 12.5139 17.214 13.1349 17.935 13.3899C18.653 13.6439 19.382 13.4369 19.945 13.0479C20.512 12.6549 20.978 12.0409 21.251 11.3099C21.524 10.5799 21.574 9.81385 21.395 9.14985C21.217 8.48785 20.786 7.86685 20.065 7.61185M18.155 10.2169C18.332 9.74185 18.62 9.38885 18.908 9.18885C19.2 8.98685 19.428 8.97885 19.565 9.02685C19.699 9.07385 19.859 9.21485 19.947 9.54085C20.034 9.86485 20.023 10.3109 19.846 10.7869C19.668 11.2609 19.38 11.6149 19.092 11.8149C18.8 12.0169 18.573 12.0249 18.435 11.9769C18.301 11.9299 18.141 11.7889 18.053 11.4629C17.966 11.1389 17.977 10.6929 18.154 10.2169" fill="#8B5A3C"/>
</svg>
