<svg width="28" height="28" viewBox="0 0 28 28" fill="none" xmlns="http://www.w3.org/2000/svg">
<path fill-rule="evenodd" clip-rule="evenodd" d="M10.845 2.32136C11.5369 2.96652 12.0712 3.91736 12.3454 5.00352C12.6207 6.09086 12.602 7.18869 12.3127 8.09986C12.0269 8.99469 11.4237 9.84052 10.4425 10.1194C9.4497 10.4017 8.50586 9.98286 7.82103 9.34352C7.1292 8.69836 6.59486 7.74869 6.3207 6.66252C6.04536 5.57519 6.06403 4.47736 6.35336 3.56619C6.6392 2.67019 7.24236 1.82552 8.22353 1.54669C9.21636 1.26436 10.1602 1.68319 10.845 2.32252M9.65153 3.60352C9.23853 3.21852 8.90486 3.17302 8.70186 3.23019C8.48836 3.29202 8.2037 3.52536 8.02053 4.09936C7.8432 4.65819 7.81053 5.42002 8.01703 6.23436C8.22353 7.05102 8.60736 7.68569 9.01453 8.06602C9.42753 8.45102 9.7612 8.49536 9.9642 8.43702C10.1777 8.37636 10.4624 8.14302 10.6455 7.56902C10.8229 7.01019 10.8555 6.24836 10.649 5.43402C10.4425 4.61736 10.0587 3.98386 9.65153 3.60352ZM12.658 11.0119C13.5284 10.7184 14.471 10.7184 15.3414 11.0119C16.3062 11.3374 17.0085 12.1459 17.6595 13.1784C18.3129 14.2167 19.0245 15.6622 19.9275 17.5032L20.9857 19.6569C21.219 20.1294 21.4034 20.5062 21.5364 20.806C21.6682 21.1012 21.7814 21.3894 21.828 21.6694C22.15 23.5512 20.7582 25.3175 18.8379 25.3735C18.5345 25.3726 18.2325 25.3322 17.9395 25.2534C17.5316 25.1541 17.1256 25.0475 16.7215 24.9337L16.7029 24.929C16.3324 24.8202 15.9585 24.7237 15.5817 24.6397C14.5377 24.4272 13.4617 24.4272 12.4177 24.6397C12.0409 24.7237 11.667 24.8202 11.2965 24.929L11.2779 24.9337C10.7774 25.0702 10.3772 25.181 10.061 25.2534C9.76768 25.3323 9.46531 25.3727 9.16153 25.3735C7.2412 25.3175 5.84936 23.5512 6.17136 21.6694C6.21803 21.3894 6.33236 21.1012 6.46303 20.806C6.59603 20.5062 6.78153 20.1294 7.0137 19.6569L8.07186 17.5032C8.97603 15.6622 9.68536 14.2155 10.3399 13.1784C10.9909 12.1459 11.692 11.3374 12.658 11.0119ZM14.7825 12.6697C14.2754 12.499 13.7263 12.499 13.2192 12.6697C12.854 12.7922 12.4282 13.1504 11.8215 14.1117C11.223 15.0614 10.5534 16.4217 9.61886 18.3234L8.59336 20.4117C8.35186 20.904 8.18153 21.2517 8.06253 21.5177C7.9922 21.6606 7.93669 21.8103 7.89686 21.9645C7.7487 22.8325 8.39153 23.6002 9.21286 23.6247C9.25953 23.6259 9.37619 23.6165 9.66553 23.5489C10.0569 23.4529 10.4467 23.3502 10.8345 23.2409L10.8695 23.2315C11.426 23.0787 11.748 22.99 12.0712 22.9247C13.3442 22.6659 14.6563 22.6659 15.9294 22.9247C16.2537 22.99 16.5757 23.0787 17.1334 23.2315L17.1672 23.2409C17.6899 23.3844 18.0574 23.4847 18.3362 23.5489C18.6244 23.6165 18.7434 23.6259 18.7889 23.6247C19.6102 23.6014 20.253 22.8314 20.1049 21.9634C20.065 21.8095 20.0094 21.6602 19.9392 21.5177C19.7685 21.146 19.5915 20.7773 19.4084 20.4117L18.3829 18.3234C17.4495 16.4217 16.7787 15.0614 16.1802 14.1117C15.5735 13.1504 15.1477 12.7934 14.7825 12.6697ZM15.654 5.00352C15.9282 3.91736 16.4625 2.96652 17.1544 2.32252C17.8392 1.68319 18.783 1.26436 19.7759 1.54669C20.757 1.82552 21.3602 2.67019 21.646 3.56619C21.9365 4.47619 21.954 5.57519 21.6787 6.66252C21.4045 7.74869 20.8702 8.69836 20.1784 9.34352C19.4935 9.98286 18.5497 10.4017 17.5569 10.1194C16.5757 9.83936 15.9725 8.99469 15.6867 8.09986C15.3974 7.18869 15.3787 6.09086 15.654 5.00352ZM19.2975 3.23019C19.0945 3.17186 18.7609 3.21619 18.3479 3.60236C17.9419 3.98152 17.5569 4.61619 17.3504 5.43169C17.1439 6.24719 17.1754 7.00902 17.355 7.56786C17.537 8.14186 17.8217 8.37519 18.0364 8.43586C18.2382 8.49419 18.5719 8.44986 18.9849 8.06369C19.392 7.68452 19.7759 7.04986 19.9824 6.23436C20.1889 5.41886 20.1574 4.65702 19.9789 4.09819C19.7957 3.52419 19.511 3.29086 19.2975 3.23019ZM5.4772 10.7365C4.82036 10.2815 3.96986 10.0412 3.1322 10.3375C2.29103 10.635 1.7882 11.3595 1.58053 12.1319C1.3717 12.9065 1.4312 13.8002 1.74853 14.6519C2.06703 15.5035 2.6107 16.221 3.2722 16.6795C3.92903 17.1345 4.77953 17.3737 5.6172 17.0785C6.45836 16.781 6.9612 16.0565 7.16886 15.2842C7.3777 14.5095 7.31936 13.6159 7.00086 12.7642C6.68236 11.9125 6.1387 11.195 5.4772 10.7365ZM4.48203 12.1762C4.81803 12.4095 5.15403 12.8214 5.3617 13.3755C5.5682 13.9297 5.58103 14.4512 5.47836 14.8292C5.37686 15.2095 5.1902 15.3729 5.03386 15.4289C4.87286 15.486 4.60803 15.4755 4.26736 15.2399C3.93136 15.0065 3.59536 14.5935 3.3877 14.0405C3.1812 13.4864 3.16836 12.9649 3.27103 12.5869C3.37253 12.2065 3.5592 12.0432 3.71553 11.9872C3.87653 11.93 4.14136 11.9405 4.48203 12.1762ZM24.8672 10.3364C24.0295 10.0412 23.179 10.2827 22.5222 10.7365C21.8607 11.195 21.317 11.9114 20.9985 12.7642C20.6812 13.6159 20.6229 14.5095 20.8305 15.2842C21.0382 16.0565 21.541 16.781 22.3822 17.0785C23.2199 17.3749 24.0704 17.1334 24.7272 16.6795C25.3887 16.221 25.9324 15.5047 26.2509 14.6519C26.5694 13.8002 26.6277 12.9065 26.4189 12.1319C26.2112 11.3595 25.7084 10.635 24.8672 10.3375M22.6389 13.3767C22.8454 12.8225 23.1814 12.4107 23.5174 12.1774C23.858 11.9417 24.124 11.9324 24.2839 11.9884C24.4402 12.0432 24.6269 12.2077 24.7295 12.588C24.831 12.966 24.8182 13.4864 24.6117 14.0417C24.404 14.5947 24.068 15.0077 23.732 15.241C23.3914 15.4767 23.1265 15.486 22.9655 15.43C22.8092 15.3752 22.6225 15.2107 22.5199 14.8304C22.4184 14.4524 22.4312 13.932 22.6377 13.3767" fill="#FFF9F9"/>
</svg>
