<svg width="62" height="54" viewBox="0 0 62 54" fill="none" xmlns="http://www.w3.org/2000/svg">
<g clip-path="url(#clip0_95_335)">
<path d="M61.147 17.3727C60.4316 15.6724 59.2431 14.4465 57.7091 13.8291L57.6884 13.8213C56.9902 13.548 56.2469 13.4081 55.497 13.4088H55.4145C51.9031 13.4617 48.3183 16.4459 46.4955 20.8351C45.1588 24.0449 45.0054 27.497 46.0856 30.07C46.7997 31.7715 47.9908 32.9974 49.5313 33.6149L49.548 33.6213C50.2463 33.8947 50.9896 34.0346 51.7394 34.0338C55.2843 34.0338 58.9066 31.0497 60.7629 26.6024C62.0829 23.3965 62.2285 19.947 61.147 17.3727ZM47.1168 36.3039C45.0917 35.087 43.1775 33.9359 41.9271 31.8682C38.4776 26.1448 36.3944 22.6901 30.9327 22.6901C25.4709 22.6901 23.3826 26.1448 19.9254 31.8682C18.6724 33.9384 16.7543 35.0909 14.7227 36.3129C12.3934 37.7128 9.98669 39.1591 8.94771 42.0054C8.54371 43.0314 8.34023 44.1254 8.34829 45.228C8.34829 49.8622 11.9577 53.6327 16.392 53.6327C18.6801 53.6327 21.1152 52.84 23.692 52.0008C26.1696 51.1938 28.731 50.3598 30.9456 50.3598C33.1602 50.3598 35.7151 51.1938 38.1836 52.0008C40.7553 52.8348 43.1788 53.6276 45.4733 53.6276C49.9012 53.6276 53.5042 49.8571 53.5042 45.2229C53.5078 44.1194 53.2999 43.0255 52.8918 42.0002C51.8529 39.1514 49.4449 37.7038 47.1168 36.3039ZM17.2686 18.159C18.8026 20.0836 20.7491 21.1432 22.7497 21.1432C23.0228 21.1431 23.2955 21.1229 23.5657 21.0826C27.7384 20.469 30.3384 15.3772 29.4851 9.48106C29.128 7.00219 28.1741 4.69348 26.8077 2.9816C25.2763 1.0609 23.3272 0.00257818 21.3279 0.00257818C21.0548 0.0026435 20.782 0.0228941 20.5119 0.0631643C16.3392 0.676758 13.7392 5.76856 14.5925 11.6647C14.9483 14.1397 15.9022 16.4459 17.2686 18.159ZM38.3009 21.0826C38.5711 21.1229 38.8438 21.1431 39.1169 21.1432C41.1188 21.1432 43.064 20.0836 44.598 18.159C45.9631 16.4459 46.9119 14.1397 47.2728 11.6621C48.1262 5.76855 45.5261 0.676758 41.3535 0.0605861C41.0833 0.0203159 40.8106 6.53203e-05 40.5375 0C38.5381 0.00257812 36.5891 1.0609 35.0577 2.9816C33.6913 4.69348 32.7374 7.00219 32.3816 9.48363C31.5282 15.3772 34.1283 20.469 38.3009 21.0826ZM12.3173 33.6213L12.3354 33.6149C13.8732 32.9974 15.063 31.7728 15.7759 30.0725C16.8561 27.4944 16.704 24.0462 15.3698 20.8364C13.5226 16.3943 9.90161 13.4088 6.36056 13.4088C5.61069 13.4077 4.86731 13.5477 4.16915 13.8213L4.15111 13.8278C2.61712 14.4401 1.42732 15.6698 0.714465 17.3701C-0.365769 19.9482 -0.21366 23.3965 1.12052 26.6063C2.96775 31.0484 6.58872 34.0338 10.1298 34.0338C10.8783 34.0344 11.6204 33.8945 12.3173 33.6213Z" fill="#FFDC99"/>
</g>
<defs>
<clipPath id="clip0_95_335">
<rect width="61.8665" height="53.6327" fill="white"/>
</clipPath>
</defs>
</svg>
