<svg width="25" height="25" viewBox="0 0 25 25" fill="none" xmlns="http://www.w3.org/2000/svg">
<path d="M22.725 5.19063C22.6597 4.99002 22.5327 4.81519 22.3621 4.69115C22.1914 4.5671 21.986 4.5002 21.775 4.5H19.5V1C19.5 0.446875 19.0531 0 18.5 0H6.5C5.94688 0 5.5 0.446875 5.5 1V4.5H3.225C3.01393 4.49972 2.80822 4.56644 2.63749 4.69055C2.46677 4.81466 2.33984 4.98976 2.275 5.19063L0 12.1875V24C0 24.5531 0.446875 25 1 25H24C24.5531 25 25 24.5531 25 24V12.1875L22.725 5.19063ZM7.75 2.25H17.25V4.5H7.75V2.25ZM22.75 22.75H2.25V12.5438L4.13438 6.75H20.8656L22.75 12.5438V22.75ZM16.875 14.375H13.5V11C13.5 10.8625 13.3875 10.75 13.25 10.75H11.75C11.6125 10.75 11.5 10.8625 11.5 11V14.375H8.125C7.9875 14.375 7.875 14.4875 7.875 14.625V16.125C7.875 16.2625 7.9875 16.375 8.125 16.375H11.5V19.75C11.5 19.8875 11.6125 20 11.75 20H13.25C13.3875 20 13.5 19.8875 13.5 19.75V16.375H16.875C17.0125 16.375 17.125 16.2625 17.125 16.125V14.625C17.125 14.4875 17.0125 14.375 16.875 14.375Z" fill="#333333"/>
</svg>
