<svg width="45" height="48" viewBox="0 0 45 48" fill="none" xmlns="http://www.w3.org/2000/svg">
<path d="M22.5 7.06439e-05C20.2375 -0.0088894 18.0546 0.834774 16.3862 2.36301C14.7177 3.89125 13.6862 5.9919 13.4971 8.24654C13.3079 10.5012 13.975 12.7443 15.3655 14.5292C16.756 16.314 18.7678 17.5096 21.0002 17.8778V22.4972H12.0014C10.8081 22.4972 9.66365 22.9712 8.81985 23.815C7.97605 24.6588 7.50201 25.8032 7.50201 26.9966V30.1222C5.27641 30.4982 3.2733 31.6967 1.88966 33.48C0.506022 35.2634 -0.157166 37.5014 0.031528 39.7507C0.220222 42 1.24703 44.0963 2.90845 45.6242C4.56987 47.152 6.74466 48 9.00181 48C11.259 48 13.4337 47.152 15.0952 45.6242C16.7566 44.0963 17.7834 42 17.9721 39.7507C18.1608 37.5014 17.4976 35.2634 16.114 33.48C14.7303 31.6967 12.7272 30.4982 10.5016 30.1222V26.9966C10.5016 26.5988 10.6596 26.2173 10.9409 25.936C11.2222 25.6548 11.6036 25.4968 12.0014 25.4968H32.9986C33.3964 25.4968 33.7778 25.6548 34.0591 25.936C34.3404 26.2173 34.4984 26.5988 34.4984 26.9966V30.1222C32.2728 30.4982 30.2697 31.6967 28.886 33.48C27.5024 35.2634 26.8392 37.5014 27.0279 39.7507C27.2166 42 28.2434 44.0963 29.9048 45.6242C31.5662 47.152 33.741 48 35.9982 48C38.2553 48 40.4301 47.152 42.0915 45.6242C43.753 44.0963 44.7798 42 44.9685 39.7507C45.1572 37.5014 44.494 35.2634 43.1103 33.48C41.7267 31.6967 39.7236 30.4982 37.498 30.1222V26.9966C37.498 25.8032 37.0239 24.6588 36.1801 23.815C35.3363 22.9712 34.1919 22.4972 32.9986 22.4972H23.9998V17.8778C26.2252 17.5015 28.2281 16.3029 29.6115 14.5197C30.9949 12.7364 31.658 10.4985 31.4693 8.24936C31.2806 6.00026 30.254 3.90411 28.5928 2.37625C26.9315 0.848385 24.757 0.000311157 22.5 7.06439e-05ZM16.5008 8.9989C16.5008 7.40781 17.1329 5.88188 18.2579 4.75681C19.383 3.63174 20.9089 2.99968 22.5 2.99968C24.0911 2.99968 25.617 3.63174 26.7421 4.75681C27.8671 5.88188 28.4992 7.40781 28.4992 8.9989C28.4992 10.59 27.8671 12.1159 26.7421 13.241C25.617 14.3661 24.0911 14.9981 22.5 14.9981C20.9089 14.9981 19.383 14.3661 18.2579 13.241C17.1329 12.1159 16.5008 10.59 16.5008 8.9989ZM3.00262 38.995C3.00262 37.4035 3.63483 35.8772 4.76018 34.7519C5.88553 33.6265 7.41183 32.9943 9.00331 32.9943C10.5948 32.9943 12.1211 33.6265 13.2464 34.7519C14.3718 35.8772 15.004 37.4035 15.004 38.995C15.004 40.5865 14.3718 42.1128 13.2464 43.2382C12.1211 44.3635 10.5948 44.9957 9.00331 44.9957C7.41183 44.9957 5.88553 44.3635 4.76018 43.2382C3.63483 42.1128 3.00262 40.5865 3.00262 38.995ZM35.9982 32.9958C36.7862 32.9958 37.5665 33.151 38.2946 33.4526C39.0226 33.7541 39.6841 34.1961 40.2413 34.7534C40.7985 35.3106 41.2405 35.9721 41.5421 36.7001C41.8437 37.4282 41.9989 38.2085 41.9989 38.9965C41.9989 39.7845 41.8437 40.5648 41.5421 41.2929C41.2405 42.0209 40.7985 42.6824 40.2413 43.2397C39.6841 43.7969 39.0226 44.2389 38.2946 44.5405C37.5665 44.842 36.7862 44.9972 35.9982 44.9972C34.4067 44.9972 32.8804 44.365 31.7551 43.2397C30.6297 42.1143 29.9975 40.588 29.9975 38.9965C29.9975 37.405 30.6297 35.8787 31.7551 34.7534C32.8804 33.628 34.4067 32.9958 35.9982 32.9958Z" fill="#333333"/>
</svg>
