<svg width="13" height="16" viewBox="0 0 13 16" fill="none" xmlns="http://www.w3.org/2000/svg">
<path d="M8.625 6.375C8.625 6.97174 8.38795 7.54403 7.96599 7.96599C7.54403 8.38795 6.97174 8.625 6.375 8.625C5.77826 8.625 5.20597 8.38795 4.78401 7.96599C4.36205 7.54403 4.125 6.97174 4.125 6.375C4.125 5.77826 4.36205 5.20597 4.78401 4.78401C5.20597 4.36205 5.77826 4.125 6.375 4.125C6.97174 4.125 7.54403 4.36205 7.96599 4.78401C8.38795 5.20597 8.625 5.77826 8.625 6.375Z" stroke="#333333" stroke-opacity="0.8" stroke-width="1.5" stroke-linecap="round" stroke-linejoin="round"/>
<path d="M12 6.375C12 11.7315 6.375 14.8125 6.375 14.8125C6.375 14.8125 0.75 11.7315 0.75 6.375C0.75 4.88316 1.34263 3.45242 2.39752 2.39752C3.45242 1.34263 4.88316 0.75 6.375 0.75C7.86684 0.75 9.29758 1.34263 10.3525 2.39752C11.4074 3.45242 12 4.88316 12 6.375Z" stroke="#333333" stroke-opacity="0.8" stroke-width="1.5" stroke-linecap="round" stroke-linejoin="round"/>
</svg>
