<svg width="29" height="28" viewBox="0 0 29 28" fill="none" xmlns="http://www.w3.org/2000/svg">
<path d="M8.42634 18.8361C10.541 14.5321 11.5997 12.3801 13.1197 11.8668C13.9068 11.6015 14.7592 11.6015 15.5463 11.8668C17.0663 12.3801 18.125 14.5321 20.2397 18.8361L21.4103 21.2228C21.957 22.3334 22.229 22.8894 22.2943 23.2681C22.5623 24.8401 21.401 26.2881 19.833 26.3348C19.4557 26.3454 18.8663 26.1841 17.6863 25.8601C17.2411 25.7312 16.792 25.6161 16.3397 25.5148C15.0153 25.2472 13.6507 25.2472 12.3263 25.5148C11.9903 25.5828 11.653 25.6748 10.9797 25.8614C9.79967 26.1841 9.21034 26.3454 8.833 26.3348C7.26634 26.2881 6.10367 24.8401 6.37167 23.2681C6.43567 22.8894 6.709 22.3348 7.25567 21.2214L8.42634 18.8361ZM6.52634 5.70409C7.07567 7.87876 8.62767 9.32676 9.993 8.93876C11.3597 8.54943 12.0223 6.47209 11.473 4.29876C10.9237 2.12409 9.37167 0.676093 8.00634 1.06409C6.63967 1.45343 5.977 3.53076 6.52634 5.70409ZM22.1397 5.70409C21.5903 7.87876 20.0383 9.32676 18.673 8.93876C17.3063 8.54943 16.6437 6.47209 17.193 4.29876C17.7423 2.12409 19.2943 0.676093 20.6597 1.06409C22.0263 1.45343 22.689 3.53076 22.1397 5.70409ZM1.269 14.7308C1.869 16.3374 3.27967 17.3134 4.41967 16.9108C5.55967 16.5081 5.997 14.8788 5.397 13.2708C4.797 11.6654 3.38634 10.6894 2.24634 11.0921C1.10634 11.4948 0.669004 13.1241 1.269 14.7321V14.7308ZM27.397 14.7308C26.797 16.3374 25.3863 17.3134 24.2463 16.9108C23.1063 16.5081 22.669 14.8788 23.269 13.2708C23.869 11.6654 25.2797 10.6894 26.4197 11.0921C27.5597 11.4948 27.997 13.1241 27.397 14.7321V14.7308Z" stroke="#333333" stroke-width="2"/>
</svg>
