<svg width="250" height="250" viewBox="0 0 250 250" fill="none" xmlns="http://www.w3.org/2000/svg">
<path d="M125 250C91.8479 250 60.0537 236.83 36.6117 213.388C13.1696 189.946 0 158.152 0 125C0 91.8479 13.1696 60.0537 36.6117 36.6117C60.0537 13.1696 91.8479 0 125 0C158.152 0 189.946 13.1696 213.388 36.6117C236.83 60.0537 250 91.8479 250 125C250 158.152 236.83 189.946 213.388 213.388C189.946 236.83 158.152 250 125 250ZM100 187.5L212.5 81.25L193.75 62.5L100 150L56.25 106.25L37.5 125L100 187.5Z" fill="#F5F0E8"/>
<path d="M100 187.5L212.5 81.25L193.75 62.5L100 150L56.25 106.25L37.5 125L100 187.5Z" fill="#3D4F3A"/>
<path d="M125 0.5C158.019 0.5 189.687 13.6166 213.035 36.9648C236.383 60.3131 249.5 91.9805 249.5 125C249.5 158.019 236.383 189.687 213.035 213.035C189.687 236.383 158.019 249.5 125 249.5C91.9805 249.5 60.3131 236.383 36.9648 213.035C13.6166 189.687 0.5 158.019 0.5 125C0.5 91.9805 13.6166 60.3131 36.9648 36.9648C60.3131 13.6166 91.9805 0.5 125 0.5ZM193.409 62.1348L100.012 149.305L56.25 105.543L36.793 125L99.9902 188.197L100.344 187.863L212.844 81.6133L213.218 81.2598L212.854 80.8965L193.762 61.8047L193.409 62.1348ZM211.782 81.2393L100.01 186.803L38.207 125L56.25 106.957L99.9883 150.695L100.341 150.365L193.737 63.1943L211.782 81.2393Z" stroke="#3D4F3A"/>
</svg>
