<svg width="24" height="24" viewBox="0 0 24 24" fill="none" xmlns="http://www.w3.org/2000/svg">
<path d="M18 1H6C3.23858 1 1 3.23858 1 6V18C1 20.7614 3.23858 23 6 23H18C20.7614 23 23 20.7614 23 18V6C23 3.23858 20.7614 1 18 1Z" stroke="#333333" stroke-width="2" stroke-linecap="round" stroke-linejoin="round"/>
<path d="M7 8.5C7.11904 10.1068 7.66017 11.6349 8.55241 12.884C9.44466 14.1332 10.6464 15.045 12 15.5V8.5M17 8.5C16.3333 10.1667 15 11.3333 13 12M13 12C15 12.6667 16.3333 13.8333 17 15.5M13 12H12" stroke="#333333" stroke-width="2" stroke-linecap="round" stroke-linejoin="round"/>
</svg>
