<svg width="59" height="48" viewBox="0 0 59 48" fill="none" xmlns="http://www.w3.org/2000/svg">
<path d="M3.68652 1C5.03534 1 6.37402 2.32404 6.37402 4.28613V21.4502C6.37406 23.3626 6.98088 25.2252 8.10742 26.6719L8.33984 26.9561L13.0586 32.4307C14.1511 33.7006 15.9478 33.9413 17.2861 32.9004L17.2871 32.9014C18.9531 31.6102 19.1399 28.9966 17.7734 27.4082L16.3721 25.7803L13.4229 22.3516C12.5932 21.3872 12.5932 19.7661 13.4229 18.8018C14.176 17.9266 15.3289 17.9266 16.082 18.8018L19.0312 22.2305L20.4326 23.8594L22.7646 26.5703C24.5322 28.6251 25.5458 31.4419 25.5459 34.4033V42.8574C25.5458 45.2908 23.8754 47 22.1211 47H15.9736C14.7223 47 13.489 46.4283 12.5566 45.3447L3.34766 34.6406C1.85677 32.9075 1 30.5293 1 28.0176V4.28613C1 2.32424 2.33785 1.00026 3.68652 1ZM55.3037 1C56.6525 1 57.9912 2.32404 57.9912 4.28613V17.1436L58 28.0186C57.9998 30.53 57.1431 32.9076 55.6523 34.6406L46.4434 45.3447C45.511 46.4283 44.2777 47 43.0264 47H36.8789C35.1246 47 33.4542 45.2908 33.4541 42.8574V34.4033C33.4542 31.4419 34.4678 28.6251 36.2354 26.5703L38.5674 23.8594L39.9688 22.2305L42.918 18.8018C43.6711 17.9266 44.824 17.9266 45.5771 18.8018C46.4068 19.7661 46.4068 21.3872 45.5771 22.3516L42.6279 25.7803L41.2266 27.4082C39.8577 28.9889 40.0502 31.6113 41.7129 32.9004C43.0513 33.9418 44.8488 33.7008 45.9414 32.4307L50.6514 26.9561C51.9265 25.4738 52.6171 23.4901 52.6172 21.4502V4.28613C52.6172 2.32411 53.9549 1.0001 55.3037 1Z" stroke="#333333" stroke-width="2"/>
</svg>
